<?xml version="1.0" standalone="no"?>
<!DOCTYPE svg PUBLIC "-//W3C//DTD SVG 20010904//EN"
 "http://www.w3.org/TR/2001/REC-SVG-20010904/DTD/svg10.dtd">
<svg version="1.0" xmlns="http://www.w3.org/2000/svg"
 width="200.000000pt" height="200.000000pt" viewBox="0 0 200.000000 200.000000"
 preserveAspectRatio="xMidYMid meet">
<metadata>
Created by potrace 1.14, written by Peter Selinger 2001-2017
</metadata>
<g transform="translate(0.000000,200.000000) scale(0.100000,-0.100000)"
fill="#000000" stroke="none">
<path d="M1057 1644 c-1 -1 -29 -5 -61 -9 -154 -17 -385 -94 -435 -144 -39
-39 -17 -105 31 -96 40 8 57 -20 52 -83 -4 -66 -13 -146 -19 -182 -2 -14 -7
-45 -10 -70 -3 -25 -8 -56 -10 -70 -2 -14 -7 -45 -10 -70 -6 -45 -30 -184 -41
-230 -18 -83 -26 -149 -21 -171 18 -69 85 -97 135 -54 26 22 27 27 28 126 2
98 8 181 18 239 5 24 55 372 61 418 9 65 29 170 36 190 15 40 138 76 297 88
109 8 165 -7 192 -51 57 -93 -63 -236 -297 -355 -107 -55 -128 -70 -131 -90
-8 -66 64 -81 174 -36 91 37 164 23 229 -44 33 -34 39 -47 43 -94 4 -46 0 -62
-22 -100 -35 -60 -121 -135 -203 -176 -60 -29 -81 -34 -170 -39 -121 -7 -156
-25 -161 -83 -3 -33 0 -37 35 -51 42 -17 137 -16 215 2 138 32 293 138 387
264 54 73 70 122 66 195 -5 102 -68 183 -179 233 l-46 20 89 87 c164 162 185
277 70 375 -59 51 -124 69 -244 66 -52 -2 -96 -4 -98 -5z"/>
</g>
</svg>
