<?xml version="1.0" encoding="UTF-8" standalone="no"?>
<!-- Created with Inkscape (http://www.inkscape.org/) -->

<svg
   version="1.1"
   id="svg1"
   width="433.67734"
   height="168"
   viewBox="0 0 433.67734 168"
   xmlns="http://www.w3.org/2000/svg"
   xmlns:svg="http://www.w3.org/2000/svg">
  <defs
     id="defs1" />
  <g
     id="g1">
    <g
       id="group-R5">
      <path
         id="path2"
         d="m 715,810 12.5,-5 5,-17.5 h 5 L 750,755 V 717.5 L 735,670 v -17.5 l 10,-25 12.5,-12.5 12.5,-5 35,-2.5 h 230 l 105,-2.5 5,12.5 h 5 l 5,10 15,10 7.5,2.5 h 37.5 l 20,-10 2.5,-7.5 h 5 V 615 l 7.5,-2.5 7.5,-25 V 570 l -7.5,-22.5 -10,-15 h -7.5 v -5 l -22.5,-10 h -30 l -17.5,7.5 v 5 l -10,2.5 -2.5,7.5 -10,7.5 v 5 L 1015,550 H 910 l -137.5,2.5 -25,7.5 -25,15 -12.5,15 -10,10 -12.5,25 -5,17.5 v 40 l 10,30 17.5,47.5 5,22.5 V 810"
         style="fill:#2d2d2b;fill-opacity:1;fill-rule:nonzero;stroke:none"
         transform="matrix(0.13333333,0,0,-0.13333333,0,168)" />
      <path
         id="path3"
         d="m 660,1260 h 40 l 22.5,-15 15,-22.5 5,-17.5 v -17.5 l -12.5,-25 -22.5,-20 -2.5,-352.5 -5,-32.5 -12.5,-25 -12.5,-15 -22.5,-17.5 -20,-10 -30,-7.5 h -20 l -50,17.5 h -30 l -35,15 -17.5,5 5,10 42.5,22.5 10,2.5 h 25 l 30,-7.5 27.5,-10 h 20 l 20,10 15,17.5 7.5,20 v 355 l -2.5,7.5 -10,5 -17.5,20 -5,12.5 v 27.5 l 10,25 20,17.5 12.5,5"
         style="fill:#659559;fill-opacity:1;fill-rule:nonzero;stroke:none"
         transform="matrix(0.13333333,0,0,-0.13333333,0,168)" />
      <path
         id="path4"
         d="m 45,745 h 32.5 l 20,-12.5 17.5,-20 7.5,-2.5 h 325 l 25,-5 30,-15 20,-20 17.5,-30 7.5,-30 V 590 L 540,560 532.5,537.5 V 510 l 10,-20 v -27.5 l -5,-30 -12.5,2.5 -12.5,10 -17.5,25 -10,22.5 -5,22.5 v 25 l 7.5,30 7.5,22.5 v 20 l -10,22.5 -12.5,12.5 -15,7.5 -37.5,2.5 H 117.5 l -20,-22.5 -30,-15 h -20 L 22.5,632.5 7.5,650 0,667.5 v 30 l 7.5,22.5 22.5,20 15,5"
         style="fill:#8db87c;fill-opacity:1;fill-rule:nonzero;stroke:none"
         transform="matrix(0.13333333,0,0,-0.13333333,0,168)" />
      <path
         id="path5"
         d="m 635,550 h 47.5 l 45,-15 H 755 v 5 h 70 v -10 l -20,-17.5 -5,-7.5 h -7.5 v -5 L 775,495 v -5 l -35,-10 -32.5,2.5 -40,15 H 635 v -5 l -15,-7.5 -10,-12.5 -5,-15 h -5 V 120 h 7.5 l 12.5,-12.5 12.5,-15 5,-12.5 V 45 l -5,-12.5 h -5 V 25 L 615,15 607.5,7.5 590,0 h -30 l -7.5,2.5 v 5 l -12.5,5 -17.5,15 L 515,45 v 40 l 5,10 h 5 l 2.5,10 7.5,7.5 h 7.5 l 2.5,7.5 h 7.5 V 462.5 L 560,490 h 5 l 2.5,12.5 h 5 l 5,12.5 15,10 10,10 h 7.5 v 5 l 25,10"
         style="fill:#2d2d2b;fill-opacity:1;fill-rule:nonzero;stroke:none"
         transform="matrix(0.13333333,0,0,-0.13333333,0,168)" />
      <path
         id="path6"
         d="m 245,880 h 35 l 20,-10 12.5,-12.5 V 850 h 5 l 2.5,-5 h 320 l 2.5,-2.5 V 795 l -2.5,-2.5 -325,-2.5 -2.5,-10 -20,-17.5 -27.5,-10 -25,5 -17.5,10 -10,10 v 7.5 h -5 l -7.5,17.5 v 30 l 7.5,20 h 5 l 2.5,10 12.5,10 17.5,7.5"
         style="fill:#2e2e2c;fill-opacity:1;fill-rule:nonzero;stroke:none"
         transform="matrix(0.13333333,0,0,-0.13333333,0,168)" />
      <path
         id="path7"
         d="M 417.5,647.5 H 445 l 17.5,-5 5,-7.5 2.5,-310 20,-20 12.5,-25 v -32.5 l -10,-20 -20,-17.5 -17.5,-7.5 h -27.5 l -25,12.5 -17.5,20 -5,12.5 v 35 l 12.5,25 20,15 2.5,322.5 2.5,2.5"
         style="fill:#68975b;fill-opacity:1;fill-rule:nonzero;stroke:none"
         transform="matrix(0.13333333,0,0,-0.13333333,0,168)" />
      <path
         id="path8"
         d="m 797.5,1057.5 h 35 l 17.5,-7.5 17.5,-20 7.5,-12.5 V 975 l -5,-10 h -5 l -2.5,-10 -7.5,-7.5 h -7.5 v -5 l -5,-2.5 V 680 L 840,617.5 827.5,615 h -20 l -17.5,2.5 -2.5,320 -10,10 -5,2.5 v 5 h -5 l -2.5,10 h -5 l -7.5,17.5 v 32.5 l 10,20 h 5 v 7.5 l 7.5,2.5 7.5,7.5 15,5"
         style="fill:#313530;fill-opacity:1;fill-rule:nonzero;stroke:none"
         transform="matrix(0.13333333,0,0,-0.13333333,0,168)" />
      <path
         id="path9"
         d="m 975,505 h 35 l 20,-10 17.5,-20 7.5,-22.5 -2.5,-27.5 -15,-25 -22.5,-15 -5,-2.5 h -30 l -25,12.5 -20,22.5 -320,2.5 -2.5,2.5 v 20 l 5,22.5 7.5,5 h 307.5 l 10,10 10,12.5 15,10 7.5,2.5"
         style="fill:#8db87c;fill-opacity:1;fill-rule:nonzero;stroke:none"
         transform="matrix(0.13333333,0,0,-0.13333333,0,168)" />
      <path
         id="path10"
         d="m 325,845 h 315 l 2.5,-2.5 V 795 L 640,792.5 317.5,790 v 5 l 5,2.5 315,2.5 v 40 h -315 l 2.5,5"
         style="fill:#76a568;fill-opacity:1;fill-rule:nonzero;stroke:none"
         transform="matrix(0.13333333,0,0,-0.13333333,0,168)" />
      <path
         id="path11"
         d="m 735,787.5 7.5,-10 L 750,755 V 717.5 L 735,670 v -17.5 l 10,-25 12.5,-12.5 12.5,-5 35,-2.5 h 230 l 105,-2.5 5,12.5 2.5,-5 L 1140,600 H 777.5 l -22.5,10 -12.5,10 -10,20 -2.5,10 v 22.5 l 12.5,40 V 760 l -7.5,20 v 7.5"
         style="fill:#7aa86c;fill-opacity:1;fill-rule:nonzero;stroke:none"
         transform="matrix(0.13333333,0,0,-0.13333333,0,168)" />
      <path
         id="path12"
         d="m 47.5,710 h 25 L 85,695 V 670 L 75,657.5 70,655 H 50 l -12.5,10 -5,7.5 V 695 l 10,12.5 5,2.5"
         style="fill:#ffffff;fill-opacity:1;fill-rule:nonzero;stroke:none"
         transform="matrix(0.13333333,0,0,-0.13333333,0,168)" />
      <path
         id="path13"
         d="m 1192.5,610 20,-5 10,-10 v -22.5 l -10,-17.5 -7.5,-2.5 h -20 l -15,17.5 v 25 l 15,12.5 7.5,2.5"
         style="fill:#f7faf5;fill-opacity:1;fill-rule:nonzero;stroke:none"
         transform="matrix(0.13333333,0,0,-0.13333333,0,168)" />
      <path
         id="path14"
         d="m 560,90 h 30 l 10,-7.5 2.5,-7.5 V 55 l -5,-12.5 H 590 v -5 h -25 l -10,5 -5,12.5 v 25 l 10,10"
         style="fill:#fafcfa;fill-opacity:1;fill-rule:nonzero;stroke:none"
         transform="matrix(0.13333333,0,0,-0.13333333,0,168)" />
      <path
         id="path15"
         d="m 982.5,470 h 22.5 l 15,-12.5 v -25 l -10,-12.5 -12.5,-5 -12.5,2.5 -15,12.5 -2.5,5 v 20 l 10,12.5 5,2.5"
         style="fill:#ffffff;fill-opacity:1;fill-rule:nonzero;stroke:none"
         transform="matrix(0.13333333,0,0,-0.13333333,0,168)" />
      <path
         id="path16"
         d="m 255,845 25,-2.5 7.5,-12.5 v -20 l -10,-15 -10,-5 -22.5,2.5 -10,20 v 15 l 12.5,15 7.5,2.5"
         style="fill:#fefffe;fill-opacity:1;fill-rule:nonzero;stroke:none"
         transform="matrix(0.13333333,0,0,-0.13333333,0,168)" />
      <path
         id="path17"
         d="M 427.5,290 H 455 l 12.5,-12.5 V 255 l -7.5,-12.5 -15,-5 -17.5,2.5 -12.5,15 v 22.5 l 12.5,12.5"
         style="fill:#ffffff;fill-opacity:1;fill-rule:nonzero;stroke:none"
         transform="matrix(0.13333333,0,0,-0.13333333,0,168)" />
      <path
         id="path18"
         d="m 742.5,565 22.5,-5 375,-2.5 7.5,-10 -2.5,-5 -5,10 -125,-2.5 H 910 l -137.5,2.5 -25,7.5 -5,5"
         style="fill:#78a66a;fill-opacity:1;fill-rule:nonzero;stroke:none"
         transform="matrix(0.13333333,0,0,-0.13333333,0,168)" />
      <path
         id="path19"
         d="m 800,1022.5 h 20 l 15,-5 5,-5 V 985 l -7.5,-10 -20,-5 h -10 l -12.5,15 -2.5,20 5,12.5 7.5,5"
         style="fill:#fbfcfa;fill-opacity:1;fill-rule:nonzero;stroke:none"
         transform="matrix(0.13333333,0,0,-0.13333333,0,168)" />
      <path
         id="path20"
         d="m 675,1225 20,-2.5 10,-12.5 v -20 l -12.5,-15 -5,-2.5 h -15 l -12.5,7.5 -7.5,12.5 v 17.5 l 12.5,12.5 10,2.5"
         style="fill:#ffffff;fill-opacity:1;fill-rule:nonzero;stroke:none"
         transform="matrix(0.13333333,0,0,-0.13333333,0,168)" />
      <path
         id="path21"
         d="m 735,787.5 7.5,-10 L 750,755 V 717.5 L 735,670 v -17.5 l 10,-25 12.5,-12.5 12.5,-5 v -5 l -10,2.5 -17.5,10 -5,12.5 -7.5,20 v 22.5 l 12.5,40 V 760 l -7.5,20 v 7.5"
         style="fill:#78a66a;fill-opacity:1;fill-rule:nonzero;stroke:none"
         transform="matrix(0.13333333,0,0,-0.13333333,0,168)" />
      <path
         id="path22"
         d="m 715,810 12.5,-5 v -7.5 l -5,5 -5,-37.5 -12.5,-35 -2.5,7.5 10,32.5 2.5,12.5 V 810"
         style="fill:#7ca96d;fill-opacity:1;fill-rule:nonzero;stroke:none"
         transform="matrix(0.13333333,0,0,-0.13333333,0,168)" />
      <path
         id="path23"
         d="m 732.5,645 7.5,-7.5 10,-15 7.5,-7.5 12.5,-5 v -5 l -10,2.5 -17.5,10 -5,12.5 -5,15"
         style="fill:#75a467;fill-opacity:1;fill-rule:nonzero;stroke:none"
         transform="matrix(0.13333333,0,0,-0.13333333,0,168)" />
      <path
         id="path24"
         d="m 567.5,502.5 5,-2.5 -5,-2.5 z m 20,20 5,-2.5 -17.5,-17.5 -2.5,5 10,12.5 z m 10,10 5,-2.5 -7.5,-5 z"
         style="fill:#536f4e;fill-opacity:1;fill-rule:nonzero;stroke:none"
         transform="matrix(0.13333333,0,0,-0.13333333,0,168)" />
      <path
         id="path25"
         d="m 2.8834688,-0.07124103 c 1.1015625,0.14448234 2.8476562,0.30100488 5.1210937,0.30100488 4.1718755,0 7.0546875,-0.7585323 8.8359375,-2.39599885 1.289063,-1.2521803 2.167969,-2.9137273 2.167969,-5.117083 0,-3.792662 -2.847656,-5.803374 -5.273438,-6.417424 v -0.07224 c 2.695313,-0.987296 4.324219,-3.142491 4.324219,-5.610731 0,-2.010713 -0.796875,-3.527778 -2.121094,-4.515074 -1.59375,-1.2883 -3.726562,-1.86623 -7.019531,-1.86623 -2.3203125,0 -4.59375,0.228764 -6.0351562,0.541809 z M 6.1881563,-22.995773 c 0.5273437,-0.108362 1.3945312,-0.216723 2.9179687,-0.216723 3.339844,0 5.613281,1.167899 5.613281,4.165907 0,2.46824 -2.050781,4.28631 -5.5429685,4.28631 H 6.1881563 Z m 0,10.739854 H 8.918625 c 3.597656,0 6.597656,1.444824 6.597656,4.9364804 0,3.7204203 -3.152343,4.9726007 -6.5624997,4.9726007 -1.171875,0 -2.1210938,-0.048161 -2.765625,-0.1565226 z m 32.0449217,3.6843001 c 0.04687,-0.3371255 0.117188,-0.8789343 0.117188,-1.5531851 0,-3.383295 -1.59375,-8.656901 -7.582032,-8.656901 -5.355468,0 -8.613281,4.370591 -8.613281,9.9090812 0,5.5384898 3.375,9.25891019 9.023438,9.25891019 2.929687,0 4.933593,-0.61404996 6.117187,-1.14381856 L 36.721359,-3.153531 c -1.253906,0.5418088 -2.695312,0.9511754 -5.085937,0.9511754 -3.339844,0 -6.222656,-1.8541901 -6.292969,-6.3692633 z M 25.377609,-10.967618 c 0.269532,-2.311717 1.746094,-5.418088 5.121094,-5.418088 3.761719,0 4.664063,3.299014 4.628906,5.418088 z m 31.863282,2.3959991 c 0.04687,-0.3371255 0.117187,-0.8789343 0.117187,-1.5531851 0,-3.383295 -1.59375,-8.656901 -7.582031,-8.656901 -5.355469,0 -8.613281,4.370591 -8.613281,9.9090812 0,5.5384898 3.375,9.25891019 9.023437,9.25891019 2.929688,0 4.933594,-0.61404996 6.117188,-1.14381856 L 55.729172,-3.153531 c -1.253906,0.5418088 -2.695313,0.9511754 -5.085938,0.9511754 -3.339843,0 -6.222656,-1.8541901 -6.292968,-6.3692633 z M 44.385422,-10.967618 c 0.269531,-2.311717 1.746094,-5.418088 5.121094,-5.418088 3.761718,0 4.664062,3.299014 4.628906,5.418088 z M 61.491867,0.00100014 h 3.269531 V -11.07598 c 0,-0.565889 0.07031,-1.143818 0.257813,-1.637466 0.539062,-1.661547 2.050781,-3.335134 4.136719,-3.335134 2.542968,0 3.832031,2.131114 3.832031,5.044842 V 0.00100014 h 3.257812 V -11.340864 c 0,-0.61405 0.117188,-1.21606 0.269532,-1.673587 0.574218,-1.625426 2.050781,-3.034129 3.949218,-3.034129 2.695313,0 3.984375,2.131114 3.984375,5.658892 V 0.00100014 h 3.257813 V -10.811095 c 0,-6.369264 -3.597656,-7.97061 -6.035156,-7.97061 -1.746094,0 -2.953125,0.457528 -4.054688,1.288301 -0.761719,0.57793 -1.476562,1.372583 -2.050781,2.395999 h -0.07031 c -0.796875,-2.167235 -2.695312,-3.6843 -5.203125,-3.6843 -3.035156,0 -4.734375,1.637467 -5.765625,3.383295 h -0.105468 l -0.152344,-2.961888 h -2.929688 c 0.117188,1.517065 0.152344,3.07025 0.152344,4.972601 z M 91.84343,-0.86589392 c 1.289062,0.7585323 3.152343,1.25218031 5.15625,1.25218031 4.37109,0 6.86719,-2.28763709 6.86719,-5.50236929 0,-2.7331243 -1.62891,-4.3344703 -4.816409,-5.5384901 -2.390625,-0.915055 -3.492188,-1.601346 -3.492188,-3.11841 0,-1.360542 1.101563,-2.504361 3.082032,-2.504361 1.699215,0 3.035155,0.61405 3.749995,1.059537 l 0.83204,-2.420079 c -1.01954,-0.61405 -2.64844,-1.143819 -4.511723,-1.143819 -3.949219,0 -6.328125,2.43212 -6.328125,5.394008 0,2.191315 1.546875,4.0214252 4.851563,5.1893241 2.460937,0.9150549 3.410155,1.7819489 3.410155,3.3832949 0,1.5170646 -1.136718,2.7331243 -3.562499,2.7331243 -1.664063,0 -3.410156,-0.6862911 -4.40625,-1.3364616 z M 108.91765,-22.767009 v 4.406711 h -2.84766 v 2.540481 h 2.84766 v 10.017443 c 0,2.1672352 0.33984,3.7926615 1.28906,4.7799575 0.79688,0.91505488 2.05078,1.40870289 3.60938,1.40870289 1.28906,0 2.30859,-0.19264313 2.95312,-0.45752742 l -0.15234,-2.50436067 c -0.41016,0.1083618 -1.05469,0.2287638 -1.9336,0.2287638 -1.86328,0 -2.50781,-1.2883009 -2.50781,-3.5759381 v -9.897041 h 4.78125 v -2.540481 h -4.78125 v -5.273605 z m 26.32324,14.1953901 c 0.0469,-0.3371255 0.11719,-0.8789343 0.11719,-1.5531851 0,-3.383295 -1.59375,-8.656901 -7.58203,-8.656901 -5.35547,0 -8.61328,4.370591 -8.61328,9.9090812 0,5.5384898 3.375,9.25891019 9.02343,9.25891019 2.92969,0 4.9336,-0.61404996 6.11719,-1.14381856 L 133.72917,-3.153531 c -1.2539,0.5418088 -2.69531,0.9511754 -5.08594,0.9511754 -3.33984,0 -6.22265,-1.8541901 -6.29296,-6.3692633 z m -12.85547,-2.3959991 c 0.26953,-2.311717 1.7461,-5.418088 5.1211,-5.418088 3.76171,0 4.66406,3.299014 4.6289,5.418088 z m 17.10645,10.96861814 h 3.30468 V -9.7876787 c 0,-0.5658893 0.0703,-1.0956573 0.15235,-1.5531853 0.45703,-2.50436 2.12109,-4.286309 4.47656,-4.286309 0.45703,0 0.79688,0.03612 1.13672,0.108361 v -3.142491 c -0.30469,-0.08428 -0.57422,-0.120402 -0.94922,-0.120402 -2.23828,0 -4.25391,1.553186 -5.08594,4.021426 h -0.15234 l -0.10547,-3.600019 h -2.92969 c 0.11719,1.709708 0.15235,3.563898 0.15235,5.731133 z m 15.29004,0 0.15234,-3.03412924 h 0.11719 c 1.37109,2.43211947 3.49219,3.45553607 6.14062,3.45553607 4.10157,0 8.23828,-3.26289297 8.23828,-9.82479937 0.0352,-5.5866506 -3.1875,-9.3793126 -7.74609,-9.3793126 -2.95312,0 -5.07422,1.336462 -6.25781,3.383295 h -0.0703 v -11.534507 h -3.30469 v 22.1900802 c 0,1.6374665 -0.0703,3.4916566 -0.15235,4.74383694 z m 0.57422,-10.65557314 c 0,-0.541809 0.11718,-0.987296 0.1875,-1.372582 0.67968,-2.540481 2.8125,-4.093666 5.08593,-4.093666 3.5625,0 5.46094,3.142491 5.46094,6.8267904 0,4.2140683 -2.08594,7.0555544 -5.57812,7.0555544 -2.42579,0 -4.35938,-1.5893058 -5.00391,-3.9010233 -0.082,-0.3852862 -0.15234,-0.8066931 -0.15234,-1.2160597 z m 26.0625,-8.127132 c -5.08594,0 -9.10547,3.612059 -9.10547,9.7525587 0,5.8033741 3.83203,9.45155327 8.80078,9.45155327 4.4414,0 9.14062,-2.96188807 9.14062,-9.75255817 0,-5.6107308 -3.5625,-9.4515538 -8.83593,-9.4515538 z m -0.082,2.504361 c 3.94922,0 5.50782,3.949184 5.50782,7.0555545 0,4.1418272 -2.39063,7.1398358 -5.57813,7.1398358 -3.25781,0 -5.57812,-3.0341292 -5.57812,-7.0555544 0,-3.4916569 1.71093,-7.1398359 5.64843,-7.1398359 z m 27.88184,7.7057251 c 0.0469,-0.3371255 0.11719,-0.8789343 0.11719,-1.5531851 0,-3.383295 -1.59375,-8.656901 -7.58203,-8.656901 -5.35547,0 -8.61329,4.370591 -8.61329,9.9090812 0,5.5384898 3.375,9.25891019 9.02344,9.25891019 2.92969,0 4.9336,-0.61404996 6.11719,-1.14381856 L 207.70671,-3.153531 c -1.25391,0.5418088 -2.69531,0.9511754 -5.08594,0.9511754 -3.33984,0 -6.22265,-1.8541901 -6.29297,-6.3692633 z M 196.363,-10.967618 c 0.26953,-2.311717 1.74609,-5.418088 5.12109,-5.418088 3.76172,0 4.66407,3.299014 4.62891,5.418088 z m 17.10645,10.96861814 h 3.30468 V -9.7876787 c 0,-0.5658893 0.0703,-1.0956573 0.15235,-1.5531853 0.45703,-2.50436 2.12109,-4.286309 4.47656,-4.286309 0.45703,0 0.79688,0.03612 1.13672,0.108361 v -3.142491 c -0.30469,-0.08428 -0.57422,-0.120402 -0.94922,-0.120402 -2.23828,0 -4.25391,1.553186 -5.08594,4.021426 h -0.15234 l -0.10547,-3.600019 h -2.92969 c 0.11719,1.709708 0.15235,3.563898 0.15235,5.731133 z m 0,0"
         style="fill:#649357;fill-opacity:1;fill-rule:nonzero;stroke:none"
         aria-label="Beemsterboer"
         transform="matrix(1.3333333,0,0,1.2977364,136.296,75.455733)" />
      <path
         id="path26"
         d="m 1051.05,694.816 c 10.98,-1.468 28.43,-2.953 51.18,-2.953 41.72,0 70.54,7.391 88.36,23.266 12.89,12.172 21.61,28.422 21.61,49.828 0,36.922 -28.43,56.484 -52.7,62.391 v 0.734 c 26.92,9.594 43.22,30.641 43.22,54.625 0,19.578 -7.95,34.344 -21.24,43.938 -15.92,12.546 -37.15,18.078 -70.15,18.078 -23.13,0 -45.88,-2.203 -60.28,-5.157 z m 32.98,222.969 c 5.31,1.11 14.03,2.219 29.2,2.219 33.38,0 56.13,-11.453 56.13,-40.609 0,-24 -20.48,-41.719 -55.38,-41.719 h -29.95 z m 0,-104.469 h 27.3 c 36.03,0 65.98,-14.031 65.98,-47.984 0,-36.187 -31.47,-48.359 -65.59,-48.359 -11.77,0 -21.24,0.359 -27.69,1.468 z m 320.53,-35.812 c 0.38,3.328 1.13,8.5 1.13,15.141 0,32.859 -15.92,84.156 -75.83,84.156 -53.48,0 -86.09,-42.438 -86.09,-96.344 0,-53.891 33.75,-90.062 90.25,-90.062 29.2,0 49.31,5.906 61.06,11.078 l -5.69,23.25 c -12.51,-5.172 -26.92,-9.235 -50.81,-9.235 -33.38,0 -62.2,18.094 -62.95,62.016 z M 1276,800.77 c 2.66,22.515 17.45,52.781 51.2,52.781 37.53,0 46.64,-32.11 46.27,-52.781 z m 318.63,-23.266 c 0.37,3.328 1.12,8.5 1.12,15.141 0,32.859 -15.92,84.156 -75.83,84.156 -53.48,0 -86.09,-42.438 -86.09,-96.344 0,-53.891 33.75,-90.062 90.25,-90.062 29.2,0 49.31,5.906 61.06,11.078 l -5.69,23.25 c -12.51,-5.172 -26.92,-9.235 -50.81,-9.235 -33.37,0 -62.2,18.094 -62.95,62.016 z m -128.57,23.266 c 2.66,22.515 17.46,52.781 51.21,52.781 37.53,0 46.64,-32.11 46.26,-52.781 z m 171.12,-106.688 h 32.61 v 107.797 c 0,5.531 0.75,11.062 2.65,15.859 5.31,16.25 20.47,32.485 41.33,32.485 25.41,0 38.3,-20.672 38.3,-49.094 V 694.082 h 32.62 v 110.375 c 0,5.906 1.13,11.813 2.66,16.234 5.69,15.875 20.47,29.532 39.44,29.532 26.92,0 39.81,-20.672 39.81,-55 V 694.082 h 32.61 v 105.203 c 0,62.016 -36.02,77.516 -60.3,77.516 -17.44,0 -29.58,-4.422 -40.58,-12.547 -7.58,-5.531 -14.78,-13.281 -20.47,-23.25 h -0.76 c -7.96,21.031 -26.92,35.797 -51.96,35.797 -30.32,0 -47.39,-15.86 -57.64,-32.844 h -1.14 l -1.51,28.797 h -29.19 c 1.13,-14.766 1.52,-29.906 1.52,-48.359 z m 303.52,8.484 c 12.89,-7.375 31.46,-12.171 51.56,-12.171 43.61,0 68.64,22.14 68.64,53.515 0,26.578 -16.31,42.094 -48.16,53.906 -23.89,8.86 -34.89,15.5 -34.89,30.266 0,13.281 11,24.359 30.72,24.359 17.06,0 30.33,-5.906 37.55,-10.328 l 8.33,23.625 c -10.24,5.907 -26.54,11.063 -45.13,11.063 -39.44,0 -63.33,-23.625 -63.33,-52.406 0,-21.422 15.55,-39.141 48.55,-50.579 24.64,-8.859 34.12,-17.343 34.12,-32.859 0,-14.766 -11.37,-26.578 -35.64,-26.578 -16.68,0 -34.14,6.656 -44,12.922 z m 170.7,213 v -42.812 h -28.44 V 848.02 h 28.44 v -97.454 c 0,-21.046 3.42,-36.921 12.89,-46.515 7.97,-8.86 20.48,-13.656 36.03,-13.656 12.89,0 23.13,1.843 29.58,4.421 l -1.52,24.375 c -4.17,-1.109 -10.62,-2.218 -19.34,-2.218 -18.58,0 -25.03,12.547 -25.03,34.703 v 96.344 h 47.78 v 24.734 h -47.78 v 51.297 z m 263.23,-138.062 c 0.37,3.328 1.12,8.5 1.12,15.141 0,32.859 -15.92,84.156 -75.83,84.156 -53.48,0 -86.09,-42.438 -86.09,-96.344 0,-53.891 33.75,-90.062 90.25,-90.062 29.2,0 49.31,5.906 61.06,11.078 l -5.69,23.25 c -12.51,-5.172 -26.92,-9.235 -50.81,-9.235 -33.37,0 -62.2,18.094 -62.95,62.016 z m -128.57,23.266 c 2.66,22.515 17.46,52.781 51.21,52.781 37.53,0 46.64,-32.11 46.26,-52.781 z m 171.12,-106.688 h 32.98 v 95.234 c 0,5.547 0.77,10.704 1.52,15.141 4.54,24.359 21.23,41.719 44.75,41.719 4.54,0 7.96,-0.375 11.37,-1.11 v 30.641 c -3.03,0.734 -5.69,1.094 -9.48,1.094 -22.36,0 -42.47,-15.125 -50.82,-39.125 h -1.51 l -1.14,35.078 h -29.19 c 1.13,-16.625 1.52,-34.703 1.52,-55.75 z m 152.87,0 1.52,29.531 h 1.14 c 13.66,-23.625 34.89,-33.593 61.44,-33.593 40.95,0 82.28,31.75 82.28,95.609 0.39,54.266 -31.84,91.172 -77.36,91.172 -29.58,0 -50.81,-12.906 -62.56,-32.844 h -0.77 v 112.219 h -32.98 V 740.223 c 0,-15.875 -0.77,-33.953 -1.52,-46.141 z m 5.69,103.734 c 0,5.157 1.14,9.594 1.91,13.282 6.81,24.734 28.05,39.875 50.81,39.875 35.64,0 54.61,-30.641 54.61,-66.453 0,-40.969 -20.86,-68.657 -55.75,-68.657 -24.27,0 -43.61,15.5 -50.06,38.016 -0.75,3.703 -1.52,7.75 -1.52,11.812 z m 260.61,78.985 c -50.81,0 -91.01,-35.063 -91.01,-94.86 0,-56.484 38.31,-91.921 87.98,-91.921 44.36,0 91.39,28.796 91.39,94.875 0,54.625 -35.64,91.906 -88.36,91.906 z m -0.76,-24.36 c 39.45,0 55,-38.39 55,-68.656 0,-40.234 -23.89,-69.406 -55.75,-69.406 -32.61,0 -55.75,29.531 -55.75,68.672 0,33.953 17.06,69.39 56.5,69.39 z m 278.82,-74.937 c 0.38,3.328 1.13,8.5 1.13,15.141 0,32.859 -15.92,84.156 -75.83,84.156 -53.48,0 -86.09,-42.438 -86.09,-96.344 0,-53.891 33.75,-90.062 90.25,-90.062 29.2,0 49.31,5.906 61.06,11.078 l -5.69,23.25 c -12.51,-5.172 -26.92,-9.235 -50.81,-9.235 -33.38,0 -62.2,18.094 -62.95,62.016 z m -128.56,23.266 c 2.66,22.515 17.45,52.781 51.2,52.781 37.54,0 46.65,-32.11 46.27,-52.781 z m 171.11,-106.688 h 32.98 v 95.234 c 0,5.547 0.77,10.704 1.52,15.141 4.54,24.359 21.23,41.719 44.75,41.719 4.54,0 7.97,-0.375 11.37,-1.11 v 30.641 c -3.03,0.734 -5.69,1.094 -9.48,1.094 -22.36,0 -42.47,-15.125 -50.81,-39.125 h -1.52 l -1.14,35.078 h -29.19 c 1.13,-16.625 1.52,-34.703 1.52,-55.75 z"
         style="fill:none;stroke:#649357;stroke-width:10;stroke-linecap:butt;stroke-linejoin:miter;stroke-miterlimit:10;stroke-dasharray:none;stroke-opacity:1"
         transform="matrix(0.13333333,0,0,-0.13333333,0,168)" />
      <path
         id="path27"
         d="M 3.5613125,-8.3671875 V -9.703125 H 0.43240625 v 1.3359375 H 1.33475 v 7.0195313 H 0.43240625 v 1.33593745 H 3.5613125 V -1.3476562 H 2.6355312 V -8.3671875 Z M 4.3904141,-9.703125 v 2.4375 H 5.7146328 V -8.4375 h 1.875 v 7.1132813 H 6.7224453 V 0.01171875 H 9.8513516 V -1.3242187 H 8.9255703 V -8.4375 h 1.9218747 v 1.171875 h 1.335938 v -2.4375 z m 19.5234379,7.5234375 c -0.597657,0.4804688 -1.359375,0.7851563 -2.203125,0.7851563 -1.933594,0 -3.492188,-1.5703126 -3.492188,-3.4921875 0,-1.921875 1.558594,-3.4921876 3.492188,-3.4921876 0.527343,0 1.019531,0.1171875 1.476562,0.3164063 v 1.1015625 h 1.3125 v -1.9335938 c -0.785156,-0.5390625 -1.746094,-0.8789062 -2.789062,-0.8789062 -2.707032,0 -4.875,2.1914063 -4.875,4.8867188 0,2.6953124 2.167968,4.87499995 4.875,4.87499995 1.042968,0 2.015625,-0.33984375 2.789062,-0.90234375 z m 5.774414,-7.5585938 c -2.542969,0 -4.605469,2.1914063 -4.605469,4.8515626 0,2.6718749 2.0625,4.87499995 4.605469,4.87499995 2.695312,0 4.734375,-2.20312505 4.734375,-4.87499995 0,-2.6601563 -2.039063,-4.8515626 -4.734375,-4.8515626 z m 0,8.3906251 c -1.828125,0 -3.269532,-1.5820313 -3.269532,-3.5390625 0,-1.9335938 1.441407,-3.4921876 3.269532,-3.4921876 1.957031,0 3.398437,1.5585938 3.398437,3.4921876 0,1.9570312 -1.441406,3.5390625 -3.398437,3.5390625 z m 14.794921,-7.0664063 v -1.3710938 h -3.199218 v 1.3710938 h 0.890625 V -2.34375 L 38.002719,-9.7617188 35.366,-9.7851563 v 1.3710938 h 0.960937 V -1.359375 H 35.366 V 0 h 3.1875 v -1.359375 h -0.890625 v -6.0703125 l 4.265625,7.41796875 h 2.554687 V -1.40625 h -0.972656 v -7.0078125 z m 4.259766,2.71875 c -0.175781,-0.011719 -0.433594,-0.023437 -0.65625,-0.070312 -0.867187,-0.1054687 -1.382812,-0.5039062 -1.382812,-1.265625 0,-0.75 0.609375,-1.40625 1.382812,-1.4296875 0.08203,0 0.117188,0 0.199219,0 0.457031,0.023437 0.84375,0.140625 1.195312,0.3632812 v 1.0781251 h 1.359375 V -8.6132813 C 50.278109,-9.3164063 49.258578,-9.75 48.285922,-9.75 c -0.08203,0 -0.152344,0 -0.199219,0 -1.488281,0 -2.660156,1.265625 -2.660156,2.71875 0,1.4765625 1.253906,2.3085938 2.660156,2.5664063 0.222656,0.035156 0.433594,0.046875 0.644531,0.082031 1.019532,0.1640625 1.757813,0.5507812 1.757813,1.5234375 0,0.9726563 -0.773438,1.6875 -1.757813,1.6992188 -0.08203,0 -0.1875,0 -0.375,0 -0.714843,-0.035156 -1.207031,-0.2578125 -1.582031,-0.5625 v -0.9257813 h -1.382812 v 1.2890625 h 0.03516 c 0.574219,0.83203125 1.722656,1.3828125 2.917969,1.3828125 0.246093,0 0.07031,0 0.386718,0 1.628907,0 2.941407,-1.2421875 2.941407,-2.8828125 0,-1.6289062 -1.242188,-2.625 -2.929688,-2.8359375 z M 61.208773,-9.75 H 58.05643 v 1.359375 h 0.890625 v 4.8867187 c 0,1.2304688 -0.960938,2.1914063 -2.144532,2.1914063 -1.171875,0 -2.144531,-0.9609375 -2.144531,-2.1445313 V -8.390625 h 0.902344 V -9.75 h -3.164063 v 1.359375 h 0.914063 v 4.9804687 c 0.105469,1.9687501 1.582031,3.44531255 3.492187,3.44531255 1.910157,0 3.457032,-1.53515625 3.503907,-3.44531255 V -8.390625 h 0.902343 z m 5.847657,7.453125 v 1.0078125 l -2.8125,-0.011719 V -8.390625 h 0.738281 v -1.3828125 h -2.847656 v 1.3828125 h 0.773437 v 7.0898438 h -0.773437 v 1.31249995 h 6.269531 V -2.296875 Z m 0.788086,-7.40625 v 2.4375 h 1.324218 V -8.4375 h 1.875 v 7.1132813 h -0.867187 v 1.33593745 h 3.128906 V -1.3242187 H 72.379672 V -8.4375 h 1.921875 v 1.171875 h 1.335937 v -2.4375 z m 15.960937,8.4140625 -3.117187,-7.2304688 h 0.914062 V -9.796875 h -3.820312 v 1.2773437 h 0.914062 l -3.117187,7.2304688 h -0.75 V 0 h 2.988281 v -1.2890625 h -0.75 l 0.5625,-1.2890625 h 4.113281 l 0.574219,1.2890625 H 81.555453 V 0 h 3 v -1.2890625 z m -5.613281,-2.5664063 1.511719,-3.3867187 1.476562,3.3867187 z m 16.391601,-4.5585937 v -1.3710938 h -3.199218 v 1.3710938 H 92.27518 V -2.34375 l -4.171875,-7.4179688 -2.636719,-0.023437 v 1.3710938 h 0.960937 v 7.054687 H 85.466586 V 0 h 3.1875 v -1.359375 h -0.890625 v -6.0703125 l 4.265625,7.41796875 h 2.554687 V -1.40625 h -0.972656 v -7.0078125 z m 7.927737,6.234375 c -0.59766,0.4804688 -1.35938,0.7851563 -2.20313,0.7851563 -1.933591,0 -3.492185,-1.5703126 -3.492185,-3.4921875 0,-1.921875 1.558594,-3.4921876 3.492185,-3.4921876 0.52735,0 1.01953,0.1171875 1.47657,0.3164063 v 1.1015625 h 1.3125 v -1.9335938 c -0.78516,-0.5390625 -1.7461,-0.8789062 -2.78907,-0.8789062 -2.707028,0 -4.874997,2.1914063 -4.874997,4.8867188 0,2.6953124 2.167969,4.87499995 4.874997,4.87499995 1.04297,0 2.01563,-0.33984375 2.78907,-0.90234375 z m 8.70996,-6.1992188 h 0.86719 V -9.75 h -3.16407 v 1.3710937 h 0.79688 l -1.57031,2.8125001 -1.59375,-2.8125001 h 0.67968 V -9.75 h -3.17578 v 1.3710937 h 0.9961 l 2.42578,4.2304688 v 2.765625 h -0.94922 v 1.37109375 h 3.17578 V -1.3828125 h -0.89063 v -2.765625 z m 0,0"
         style="fill:#2d2d2b;fill-opacity:1;fill-rule:nonzero;stroke:none"
         aria-label="IT CONSULTANCY"
         transform="matrix(1.3333333,0,0,1.3333333,215.84533,101.5)" />
    </g>
  </g>
</svg>
