<?xml version="1.0" encoding="utf-8"?>
<!-- Generator: Adobe Illustrator 24.3.0, SVG Export Plug-In . SVG Version: 6.00 Build 0)  -->
<svg version="1.1" id="Layer_1" xmlns="http://www.w3.org/2000/svg" xmlns:xlink="http://www.w3.org/1999/xlink" x="0px" y="0px"
	 viewBox="0 0 500 500" style="enable-background:new 0 0 500 500;" xml:space="preserve">
<style type="text/css">
	.st0{fill:#313331;}
	.st1{fill:#6E9363;}
	.st2{fill:#94B489;}
	.st3{fill:#323431;}
	.st4{fill:#719566;}
	.st5{fill:#363B35;}
	.st6{fill:#7FA274;}
	.st7{fill:#83A578;}
	.st8{fill:#FEFEFE;}
	.st9{fill:#F4F7F3;}
	.st10{fill:#F8FAF8;}
	.st11{fill:#FCFDFC;}
	.st12{fill:#81A376;}
	.st13{fill:#F9FAF8;}
	.st14{fill:#85A67A;}
	.st15{fill:#7EA173;}
	.st16{fill:#5C7256;}
	.st17{fill:#6D9262;stroke:#6D9262;stroke-miterlimit:10;}
	.st18{font-family:'MyriadPro-Regular';}
	.st19{font-size:36.9253px;}
	.st20{font-family:'Arctic';}
	.st21{font-size:13px;}
</style>
<path class="st0" d="M129.2,232l1.2,0.5l0.5,1.8h0.5l1.2,3.2v3.8l-1.5,4.8v1.8l1,2.5l1.2,1.2l1.2,0.5l3.5,0.2h23l10.5,0.2l0.5-1.2
	h0.5l0.5-1l1.5-1l0.8-0.2h3.8l2,1l0.2,0.8h0.5v0.8l0.8,0.2l0.8,2.5v1.8l-0.8,2.2l-1,1.5H181v0.5l-2.2,1h-3l-1.8-0.8V260l-1-0.2
	l-0.2-0.8l-1-0.8v-0.5l-12.5,0.2h-10.5l-13.8-0.2l-2.5-0.8l-2.5-1.5l-1.2-1.5l-1-1l-1.2-2.5l-0.5-1.8v-4l1-3l1.8-4.8l0.5-2.2V232z"
	/>
<path class="st1" d="M123.8,187h4l2.2,1.5l1.5,2.2l0.5,1.8v1.8l-1.2,2.5l-2.2,2l-0.2,35.2l-0.5,3.2l-1.2,2.5l-1.2,1.5L123,243l-2,1
	l-3,0.8h-2l-5-1.8h-3l-3.5-1.5l-1.8-0.5l0.5-1l4.2-2.2l1-0.2h2.5l3,0.8l2.8,1h2l2-1l1.5-1.8l0.8-2V199l-0.2-0.8l-1-0.5l-1.8-2
	l-0.5-1.2v-2.8l1-2.5l2-1.8L123.8,187z"/>
<path class="st2" d="M62.2,238.5h3.2l2,1.2l1.8,2L70,242h32.5l2.5,0.5l3,1.5l2,2l1.8,3l0.8,3v2l-0.8,3l-0.8,2.2v2.8l1,2v2.8l-0.5,3
	l-1.2-0.2l-1.2-1l-1.8-2.5l-1-2.2l-0.5-2.2V259l0.8-3l0.8-2.2v-2l-1-2.2l-1.2-1.2l-1.5-0.8l-3.8-0.2H69.5l-2,2.2l-3,1.5h-2l-2.5-1.2
	l-1.5-1.8l-0.8-1.8v-3l0.8-2.2l2.2-2L62.2,238.5z"/>
<path class="st0" d="M121.2,258h4.8l4.5,1.5h2.8V259h7v1l-2,1.8l-0.5,0.8H137v0.5l-1.8,0.5v0.5l-3.5,1l-3.2-0.2l-4-1.5h-3.2v0.5
	l-1.5,0.8l-1,1.2l-0.5,1.5h-0.5V301h0.8l1.2,1.2l1.2,1.5l0.5,1.2v3.5l-0.5,1.2h-0.5v0.8l-1.2,1l-0.8,0.8l-1.8,0.8h-3l-0.8-0.2v-0.5
	l-1.2-0.5l-1.8-1.5l-0.8-1.8v-4l0.5-1h0.5l0.2-1l0.8-0.8h0.8l0.2-0.8h0.8v-34.2l0.8-2.8h0.5l0.2-1.2h0.5l0.5-1.2l1.5-1l1-1h0.8V259
	L121.2,258z"/>
<path class="st3" d="M82.2,225h3.5l2,1l1.2,1.2v0.8h0.5l0.2,0.5h32l0.2,0.2v4.8l-0.2,0.2L89.2,234l-0.2,1l-2,1.8l-2.8,1l-2.5-0.5
	l-1.8-1l-1-1v-0.8h-0.5l-0.8-1.8v-3l0.8-2H79l0.2-1l1.2-1L82.2,225z"/>
<path class="st4" d="M99.5,248.2h2.8l1.8,0.5l0.5,0.8l0.2,31l2,2l1.2,2.5v3.2l-1,2l-2,1.8l-1.8,0.8h-2.8l-2.5-1.2l-1.8-2l-0.5-1.2
	v-3.5l1.2-2.5l2-1.5l0.2-32.2L99.5,248.2z"/>
<path class="st5" d="M137.5,207.2h3.5l1.8,0.8l1.8,2l0.8,1.2v4.2l-0.5,1h-0.5l-0.2,1l-0.8,0.8h-0.8v0.5L142,219v26l-0.2,6.2
	l-1.2,0.2h-2l-1.8-0.2l-0.2-32l-1-1L135,218v-0.5h-0.5l-0.2-1h-0.5l-0.8-1.8v-3.2l1-2h0.5v-0.8l0.8-0.2l0.8-0.8L137.5,207.2z"/>
<path class="st2" d="M155.2,262.5h3.5l2,1l1.8,2l0.8,2.2l-0.2,2.8l-1.5,2.5l-2.2,1.5l-0.5,0.2h-3l-2.5-1.2l-2-2.2l-32-0.2l-0.2-0.2
	v-2l0.5-2.2l0.8-0.5H151l1-1l1-1.2l1.5-1L155.2,262.5z"/>
<path class="st6" d="M90.2,228.5h31.5l0.2,0.2v4.8l-0.2,0.2L89.5,234v-0.5l0.5-0.2l31.5-0.2v-4H90L90.2,228.5z"/>
<path class="st7" d="M131.2,234.2l0.8,1l0.8,2.2v3.8l-1.5,4.8v1.8l1,2.5l1.2,1.2l1.2,0.5l3.5,0.2h23l10.5,0.2l0.5-1.2l0.2,0.5
	l-0.8,1.2h-36.2l-2.2-1l-1.2-1l-1-2l-0.2-1v-2.2l1.2-4V237l-0.8-2V234.2z"/>
<path class="st8" d="M62.5,242H65l1.2,1.5v2.5l-1,1.2l-0.5,0.2h-2l-1.2-1l-0.5-0.8v-2.2l1-1.2L62.5,242z"/>
<path class="st9" d="M177,252l2,0.5l1,1v2.2l-1,1.8l-0.8,0.2h-2l-1.5-1.8v-2.5l1.5-1.2L177,252z"/>
<path class="st10" d="M113.8,304h3l1,0.8l0.2,0.8v2l-0.5,1.2h-0.8v0.5h-2.5l-1-0.5l-0.5-1.2V305L113.8,304z"/>
<path class="st8" d="M156,266h2.2l1.5,1.2v2.5l-1,1.2l-1.2,0.5l-1.2-0.2l-1.5-1.2l-0.2-0.5v-2l1-1.2L156,266z"/>
<path class="st11" d="M83.2,228.5l2.5,0.2l0.8,1.2v2l-1,1.5l-1,0.5l-2.2-0.2l-1-2v-1.5l1.2-1.5L83.2,228.5z"/>
<path class="st8" d="M100.5,284h2.8l1.2,1.2v2.2l-0.8,1.2l-1.5,0.5l-1.8-0.2l-1.2-1.5v-2.2L100.5,284z"/>
<path class="st12" d="M132,256.5l2.2,0.5l37.5,0.2l0.8,1l-0.2,0.5l-0.5-1l-12.5,0.2h-10.5l-13.8-0.2l-2.5-0.8L132,256.5z"/>
<path class="st13" d="M137.8,210.8h2l1.5,0.5l0.5,0.5v2.8l-0.8,1l-2,0.5h-1l-1.2-1.5l-0.2-2l0.5-1.2L137.8,210.8z"/>
<path class="st8" d="M125.2,190.5l2,0.2l1,1.2v2l-1.2,1.5l-0.5,0.2H125l-1.2-0.8l-0.8-1.2V192l1.2-1.2L125.2,190.5z"/>
<path class="st12" d="M131.2,234.2l0.8,1l0.8,2.2v3.8l-1.5,4.8v1.8l1,2.5l1.2,1.2l1.2,0.5v0.5l-1-0.2l-1.8-1l-0.5-1.2l-0.8-2v-2.2
	l1.2-4V237l-0.8-2V234.2z"/>
<path class="st14" d="M129.2,232l1.2,0.5v0.8l-0.5-0.5l-0.5,3.8l-1.2,3.5l-0.2-0.8l1-3.2l0.2-1.2V232z"/>
<path class="st15" d="M131,248.5l0.8,0.8l1,1.5l0.8,0.8l1.2,0.5v0.5l-1-0.2l-1.8-1l-0.5-1.2L131,248.5z"/>
<path class="st16" d="M117.5,259.8l0.5,0.2l-0.8,0.5L117.5,259.8z M116.5,260.8l0.5,0.2l-1.8,1.8l-0.2-0.5l1-1.2L116.5,260.8z
	 M114.5,262.8l0.5,0.2l-0.5,0.2V262.8z"/>
<text transform="matrix(1.0274 0 0 1 159.972 243.5918)" class="st17 st18 st19">Beemsterboer</text>
<text transform="matrix(1 0 0 1 219.634 263.125)" class="st0 st20 st21">IT CONSULTANCY</text>
</svg>
